<svg width="50" height="50" version="1.1" viewBox="0 0 700 700" xmlns="http://www.w3.org/2000/svg">
 <path d="m222.8 201.73c-14.035 22.758-22.129 49.566-22.129 78.27 0 82.473 66.859 149.33 149.33 149.33 28.703 0 55.512-8.0938 78.27-22.129zm37.824-41.375 209.02 209.02c18.645-24.922 29.688-55.859 29.688-89.379 0-82.473-66.859-149.33-149.33-149.33-33.52 0-64.457 11.043-89.379 29.688zm89.379 324.98c-113.4 0-205.33-91.93-205.33-205.33s91.93-205.33 205.33-205.33 205.33 91.93 205.33 205.33-91.93 205.33-205.33 205.33z" fill-rule="evenodd"/>
</svg>
